<svg width="32" height="32" viewBox="0 0 500 500" xmlns="http://www.w3.org/2000/svg">
  <rect x="0.529" y="0.974" width="498.398" height="498.398" style="fill: rgb(0,0,0);"></rect>
  <path d="M 285.59 51.631 C 294.038 50.154 346.192 53.11 358.928 58.919 C 373.846 65.723 411.37 74.115 427.34 86.261 C 442.827 98.04 471.298 122.549 480.973 147.022 C 491.247 173.011 488.341 206.125 485.352 226.009 C 482.706 243.591 472.643 279 464.555 292.846 C 456.427 306.762 426.496 341.594 409.828 356.037 C 397.391 366.809 401.596 370.884 344.699 394.314 C 314.244 406.855 299.892 404.38 273.551 405.25 C 257.222 405.791 241.932 405.37 226.485 402.822 C 212.731 400.553 188.606 389.696 184.888 384.593 C 179.519 377.221 160.342 367.825 151.646 356.658 C 141.068 343.072 133.741 318.22 127.423 301.353 C 122.086 287.102 124.939 263.459 119.761 260.644 C 115.61 258.385 106.914 268.364 102.249 274.618 C 97.261 281.302 93.283 291.451 91.301 300.137 C 89.398 308.477 89.391 316.26 90.207 325.656 C 91.158 336.602 94.059 353.623 97.87 362.112 C 100.661 368.332 123.214 398.391 127.969 402.822 C 134.169 408.595 152.283 413.348 161.901 417.402 C 172.176 421.734 218.852 441.605 214.442 445.352 C 208.981 449.989 172.219 452.261 164.092 453.859 C 156.16 455.422 133.315 455.412 123.592 453.859 C 110.577 451.783 93.935 444.879 79.807 436.846 C 66.148 429.078 53.52 418.377 44.234 404.644 C 34.441 390.158 21.916 371.208 17.965 353.606 C 14.285 337.213 17.048 304.926 19.059 286.77 C 21.483 264.897 30.673 250.338 40.951 228.441 C 50.82 207.417 67.399 186.719 79.807 173.148 C 89.636 162.403 96.241 157.366 108.267 150.06 C 123.282 140.94 148.52 130.004 165.186 124.542 C 178.754 120.094 186.466 118.764 201.307 117.25 C 220.88 115.251 231.559 113.91 249.47 114.82 C 261.577 115.433 293.177 116.727 302.009 119.681 C 311.069 122.71 318.804 126.504 328.279 134.264 C 340.723 144.453 348.14 147.375 357.286 161.604 C 364.433 172.724 373.37 183.826 375.894 195.63 C 378.645 208.498 382.28 254.045 384.102 254.568 C 385.771 255.045 401.639 242.86 405.448 230.872 C 415.727 198.53 416.797 198.098 416.039 185.663 C 415.477 176.438 400.915 154.176 397.785 147.022 C 394.254 138.949 359.525 114.381 351.265 107.53 C 341.031 99.04 302.972 86.491 291.063 83.225 C 282.08 80.76 247.977 75.456 248.92 69.25 C 249.759 63.735 280.009 52.606 285.59 51.631 Z" style="stroke-opacity: 0; stroke-width: 0px; paint-order: fill; fill: rgb(44, 22, 190);"></path>
  <path d="M 209.295 148.443 C 233.535 145.575 272.888 147.988 292.375 151.965 C 305.408 154.623 312.205 158.725 320.458 163.703 C 328.28 168.418 335.676 174.451 340.936 180.72 C 345.766 186.477 348.657 189.926 351.467 199.501 C 356.083 215.216 362.936 256.729 359.658 273.444 C 357.468 284.619 353.291 289.998 345.032 296.332 C 334.235 304.609 296.164 311.921 295.3 314.524 C 294.723 316.265 309.143 313.508 314.607 315.111 C 319.473 316.538 324.073 318.686 326.895 322.742 C 330.135 327.397 332.405 337.076 331.574 342.694 C 330.851 347.585 328.049 351.884 323.969 355.018 C 319.125 358.74 313.181 360.599 302.906 362.062 C 285.986 364.463 245.716 364.494 225.675 362.062 C 210.854 360.261 201.099 357.762 190.571 352.67 C 180.283 347.697 169.717 339.811 163.072 332.129 C 157.205 325.347 153.861 319.737 151.371 309.829 C 147.992 296.388 144.831 271.256 149.03 255.839 C 152.869 241.752 162.148 229.991 173.02 220.04 C 184.711 209.338 216.944 197.672 218.071 194.805 C 218.561 193.558 215.321 193.831 211.634 194.22 C 203.24 195.104 172.876 207.091 162.486 205.955 C 156.188 205.268 153.023 202.381 150.201 198.326 C 146.96 193.67 144.575 184.135 145.521 178.375 C 146.38 173.14 148.334 168.923 154.297 164.876 C 164.218 158.143 188.394 150.917 209.295 148.443 Z M 290.62 315.111 C 290.3 315.281 290.292 316.037 290.62 316.285 C 291.189 316.718 295.28 316.476 295.3 316.285 C 295.319 316.09 291.183 314.814 290.62 315.111 Z" style="stroke-opacity: 0; stroke-width: 0px; fill: rgb(48, 126, 209);"></path>
  <g transform="rotate(-10 0 0) translate(200 300)">
    <ellipse style="fill: rgb(229, 231, 207);" cx="0" cy="0" rx="82.52" ry="53.651"></ellipse>
  </g>
</svg>